#tb 0: 1/48000
#media_type 0: audio
#codec_id 0: pcm_s24le
#sample_rate 0: 48000
#channel_layout_name 0: 5.1(side)
0,          0,          0,      512,     9216, 0xb1820448
0,        512,        512,      512,     9216, 0x00000000
0,       1024,       1024,      512,     9216, 0xeeef4c10
0,       1536,       1536,      512,     9216, 0x7bb4ed68
0,       2048,       2048,      512,     9216, 0x6aaf9f0b
0,       2560,       2560,      512,     9216, 0x8ca1e2f7
